<svg width="98" height="98" viewBox="0 0 98 98" fill="none" xmlns="http://www.w3.org/2000/svg">
<rect x="1.5" y="1.5" width="95" height="95" rx="47.5" stroke="white" stroke-width="3"/>
<g clip-path="url(#clip0_1428_4)">
<path d="M64.5654 37.5876C64.8323 36.2097 64.7521 34.7738 64.3339 33.4457C63.9158 32.1176 63.1769 30.9515 62.2025 30.0821C61.2281 29.2126 60.058 28.6754 58.8273 28.5323C57.5966 28.3892 56.3555 28.6462 55.2474 29.2735C54.834 27.7462 54.0026 26.4101 52.875 25.4611C51.7475 24.512 50.3831 24 48.9818 24C47.5805 24 46.2161 24.512 45.0885 25.4611C43.961 26.4101 43.1296 27.7462 42.7162 29.2735C41.6081 28.6462 40.367 28.3892 39.1363 28.5323C37.9056 28.6754 36.7355 29.2126 35.7611 30.0821C34.7867 30.9515 34.0477 32.1176 33.6296 33.4457C33.2115 34.7738 33.1313 36.2097 33.3982 37.5876C31.7857 37.918 30.3401 38.9249 29.3458 40.4101C28.3516 41.8953 27.8807 43.7513 28.0258 45.6127C28.171 47.4741 28.9216 49.2061 30.1301 50.4678C31.3386 51.7295 32.9173 52.4295 34.5555 52.43H34.6867C35.0345 54.3742 36.0451 56.0811 37.4962 57.1753C38.9473 58.2694 40.7201 58.6612 42.4244 58.2645C44.1287 57.8677 45.6251 56.7149 46.5843 55.0596C47.5435 53.4043 47.887 51.3821 47.5392 49.438H49.1129C48.7855 51.3863 49.1501 53.4033 50.1263 55.0451C51.1026 56.6869 52.6106 57.819 54.3187 58.1925C56.0267 58.5659 57.7948 58.1501 59.2341 57.0365C60.6734 55.9228 61.6659 54.2026 61.9933 52.2542C62.8468 52.4749 63.7303 52.4984 64.5919 52.3234C65.4535 52.1485 66.2757 51.7785 67.01 51.2354C67.7443 50.6923 68.3759 49.9871 68.8675 49.1612C69.3591 48.3353 69.7009 47.4055 69.8726 46.4266C70.0443 45.4477 70.0424 44.4396 69.8672 43.4615C69.692 42.4834 69.3469 41.5552 68.8523 40.7317C68.3577 39.9081 67.7236 39.2058 66.9874 38.6662C66.2511 38.1265 65.4276 37.7604 64.5654 37.5895V37.5876Z" fill="white"/>
<path d="M45 74.4372H53.5856L52.3591 45H46.2265L45 74.4372Z" fill="white"/>
</g>
<defs>
<clipPath id="clip0_1428_4">
<rect width="42" height="50" fill="white" transform="translate(28 24)"/>
</clipPath>
</defs>
</svg>
