<svg width="46" height="46" viewBox="0 0 46 46" fill="none" xmlns="http://www.w3.org/2000/svg">
<rect width="46" height="46" rx="23" fill="white"/>
<g clip-path="url(#clip0_1428_3)">
<path d="M30.4121 17.7888C30.5392 17.2018 30.501 16.59 30.3019 16.0242C30.1028 15.4584 29.7509 14.9616 29.2869 14.5912C28.8229 14.2208 28.2657 13.9919 27.6796 13.9309C27.0936 13.87 26.5026 13.9794 25.9749 14.2467C25.7781 13.596 25.3822 13.0268 24.8453 12.6225C24.3083 12.2182 23.6586 12 22.9913 12C22.3241 12 21.6743 12.2182 21.1374 12.6225C20.6005 13.0268 20.2046 13.596 20.0077 14.2467C19.48 13.9794 18.8891 13.87 18.303 13.9309C17.717 13.9919 17.1597 14.2208 16.6957 14.5912C16.2317 14.9616 15.8799 15.4584 15.6808 16.0242C15.4817 16.59 15.4435 17.2018 15.5706 17.7888C14.8027 17.9296 14.1143 18.3585 13.6409 18.9913C13.1674 19.624 12.9432 20.4148 13.0123 21.2078C13.0814 22.0008 13.4389 22.7387 14.0143 23.2762C14.5898 23.8138 15.3416 24.112 16.1217 24.1122H16.1841C16.3498 24.9405 16.831 25.6677 17.522 26.1339C18.213 26.6 19.0572 26.7669 19.8688 26.5979C20.6804 26.4289 21.3929 25.9377 21.8497 25.2325C22.3064 24.5273 22.47 23.6658 22.3044 22.8375H23.0538C22.8979 23.6676 23.0715 24.5269 23.5364 25.2263C24.0012 25.9258 24.7193 26.4081 25.5327 26.5672C26.3461 26.7263 27.188 26.5492 27.8734 26.0747C28.5587 25.6003 29.0314 24.8674 29.1873 24.0373C29.5937 24.1313 30.0145 24.1414 30.4247 24.0668C30.835 23.9923 31.2265 23.8347 31.5762 23.6033C31.9259 23.3719 32.2266 23.0714 32.4607 22.7196C32.6948 22.3677 32.8576 21.9716 32.9393 21.5546C33.0211 21.1375 33.0202 20.708 32.9368 20.2913C32.8533 19.8746 32.689 19.4792 32.4535 19.1283C32.218 18.7774 31.916 18.4782 31.5654 18.2483C31.2148 18.0184 30.8227 17.8625 30.4121 17.7896V17.7888Z" fill="#2A9D8F"/>
<path d="M21 34.3772H25.0888L24.5046 21H21.5841L21 34.3772Z" fill="#2A9D8F"/>
</g>
<defs>
<clipPath id="clip0_1428_3">
<rect width="20" height="22" fill="white" transform="translate(13 12)"/>
</clipPath>
</defs>
</svg>
